<svg xmlns="http://www.w3.org/2000/svg" version="1.1" xmlns:xlink="http://www.w3.org/1999/xlink" width="2000" height="93" viewBox="0 0 2000 93"><svg xml:space="preserve" width="2000" height="93" data-version="2" data-id="lg_WX8KCo2jXvb7JgIgI2" viewBox="0 0 703 93" x="0" y="0"><rect width="100%" height="100%" fill="transparent"></rect><g transform="translate(126.595 39.872)"><linearGradient id="a" x1="-.008" x2="8.911" y1="0" y2="0" gradientUnits="objectBoundingBox"><stop offset="0%" stop-color="#9c7945"></stop><stop offset="49.8%" stop-color="#faf3aa"></stop><stop offset="100%" stop-color="#9c7945"></stop></linearGradient><path fill="url(#a)" d="M179.58 403.34v23.36h-16.47v-59.76h16.47v28.47q7.64-5.85 14.26-12.99 6.62-7.14 11.39-15.53h11.25q-4.4 7.52-10.08 14.03-5.69 6.52-12.37 12.08l23.86 33.7h-17.18l-17.97-25.4q-.79.54-1.56 1.04t-1.6 1" transform="translate(-190.5 -396.795)"></path></g><g transform="translate(182.5 45.707)"><linearGradient id="b" x1="-.525" x2="3.637" y1="0" y2="0" gradientUnits="objectBoundingBox"><stop offset="0%" stop-color="#9c7945"></stop><stop offset="49.8%" stop-color="#faf3aa"></stop><stop offset="100%" stop-color="#9c7945"></stop></linearGradient><path fill="url(#b)" d="M271.89 378.76v47.94h-14.03v-5.73q-2.49 3.41-6 5.05-3.5 1.64-7.7 1.64-5.47 0-9.79-1.95-4.32-1.95-7.3-5.34-2.99-3.38-4.57-7.95-1.58-4.56-1.58-9.79 0-5.23 1.58-9.8 1.58-4.56 4.57-7.94 2.98-3.39 7.3-5.34 4.32-1.95 9.79-1.95 2.79 0 5.3.83t4.6 2.35q2.1 1.51 3.7 3.65 1.6 2.14 2.51 4.75l6.22-10.42zm-14.11 23.87q0-1.87-.19-3.94-.19-2.08-.64-4.11-.46-2.04-1.27-3.88-.81-1.85-2.07-3.28-1.27-1.43-3.05-2.26-1.79-.83-4.15-.83-2.37 0-4.11.85-1.75.85-2.99 2.28-1.25 1.43-2.06 3.3-.8 1.87-1.26 3.9-.46 2.03-.64 4.09-.19 2.05-.19 3.88t.19 3.9q.18 2.08.64 4.11.46 2.03 1.26 3.9.81 1.87 2.06 3.3 1.24 1.43 2.99 2.28 1.74.85 4.11.85 2.15 0 3.84-.89 1.68-.89 2.94-2.38 1.27-1.5 2.14-3.41.87-1.91 1.41-3.94.54-2.03.79-4.05.25-2.01.25-3.67" transform="translate(-246.405 -402.63)"></path></g><g transform="translate(240.835 50.332)"><linearGradient id="c" x1="-1.021" x2="1.435" y1="0" y2="0" gradientUnits="objectBoundingBox"><stop offset="0%" stop-color="#9c7945"></stop><stop offset="49.8%" stop-color="#faf3aa"></stop><stop offset="100%" stop-color="#9c7945"></stop></linearGradient><path fill="url(#c)" d="M329.25 399.23q0 4.85-1.19 10.12-1.18 5.27-3.29 10.34-2.12 5.06-5.07 9.52-2.94 4.46-6.47 7.7l-5.27-2.86q1.12-2.08 2.11-4.65 1-2.57 1.81-5.46.81-2.88 1.45-5.95.64-3.08 1.08-6.08.44-3.01.66-5.86.23-2.84.23-5.29 0-1.62-.12-3.46-.13-1.85-.52-3.7-.4-1.84-1.06-3.55-.66-1.7-1.76-2.98-1.1-1.29-2.66-2.08t-3.67-.79q-2.08 0-3.7.94-1.61.93-2.86 2.44-1.25 1.52-2.14 3.47-.89 1.95-1.45 4.01-.56 2.05-.81 4.04-.25 1.99-.25 3.57v24.03h-14.07v-47.94h5.4l6.43 11.17q1.16-2.78 2.91-5.06 1.74-2.29 3.94-3.91 2.2-1.61 4.88-2.49 2.67-.87 5.78-.87 4.99 0 8.68 1.62 3.69 1.62 6.14 4.5 2.45 2.89 3.65 6.85 1.21 3.97 1.21 8.66" transform="translate(-304.74 -407.255)"></path></g><g transform="translate(293.71 45.707)"><linearGradient id="d" x1="-1.574" x2=".118" y1="0" y2="0" gradientUnits="objectBoundingBox"><stop offset="0%" stop-color="#9c7945"></stop><stop offset="49.8%" stop-color="#faf3aa"></stop><stop offset="100%" stop-color="#9c7945"></stop></linearGradient><path fill="url(#d)" d="M379.76 411.39q0 3.15-.92 5.6-.91 2.45-2.49 4.25-1.57 1.81-3.73 3.03-2.16 1.23-4.63 1.98-2.47.74-5.17 1.07-2.69.34-5.35.34-3.57 0-6.31-.46-2.74-.46-5.23-1.47-2.49-1.02-4.96-2.64-2.47-1.62-5.5-3.94l8.18-6.68q1.12 2.11 2.97 3.84 1.84 1.72 3.84 2.96 1.99 1.25 3.86 1.91 1.86.67 3.03.67.95 0 2.15-.07 1.21-.06 2.45-.25 1.25-.18 2.45-.56 1.21-.37 2.14-1.01.93-.65 1.49-1.62.56-.98.56-2.35 0-1.41-.72-2.47-.73-1.05-1.89-1.84t-2.66-1.33q-1.49-.54-3.01-.96-1.51-.41-2.92-.72t-2.45-.6q-1.91-.54-4.03-1.1-2.11-.56-4.19-1.29-2.07-.73-3.96-1.72-1.89-1-3.32-2.39-1.43-1.39-2.29-3.28-.85-1.89-.85-4.42 0-4.65 1.85-7.78t4.88-5.02q3.03-1.89 6.89-2.68 3.86-.79 7.84-.79 2.74 0 5.77.56 3.03.56 5.89 1.66 2.87 1.1 5.36 2.68t4.15 3.61l-8.18 6.72q-.91-2.49-2.38-4.27-1.48-1.78-3.2-2.93-1.72-1.14-3.53-1.68-1.8-.54-3.34-.54-1.49 0-3.36.13-1.87.12-3.51.7-1.64.58-2.78 1.77-1.14 1.18-1.14 3.26 0 1.49.68 2.55.69 1.06 1.81 1.82 1.12.77 2.55 1.29 1.43.52 2.93.91 1.49.4 2.9.69 1.41.29 2.54.62 1.9.54 4.04 1.1t4.21 1.29q2.08.72 4.01 1.7 1.93.97 3.38 2.39 1.45 1.41 2.33 3.3.87 1.88.87 4.46" transform="translate(-357.615 -402.63)"></path></g><g transform="translate(347.48 45.707)"><linearGradient id="e" x1="-2.035" x2="-.907" y1="0" y2="0" gradientUnits="objectBoundingBox"><stop offset="0%" stop-color="#9c7945"></stop><stop offset="49.8%" stop-color="#faf3aa"></stop><stop offset="100%" stop-color="#9c7945"></stop></linearGradient><path fill="url(#e)" d="M436.87 378.76v47.94h-14.03v-5.73q-2.49 3.41-6 5.05-3.51 1.64-7.7 1.64-5.48 0-9.79-1.95-4.32-1.95-7.31-5.34-2.99-3.38-4.56-7.95-1.58-4.56-1.58-9.79 0-5.23 1.58-9.8 1.57-4.56 4.56-7.94 2.99-3.39 7.31-5.34 4.31-1.95 9.79-1.95 2.78 0 5.29.83 2.52.83 4.61 2.35 2.1 1.51 3.7 3.65 1.59 2.14 2.51 4.75l6.22-10.42zm-14.11 23.87q0-1.87-.19-3.94-.19-2.08-.64-4.11-.46-2.04-1.27-3.88-.81-1.85-2.08-3.28-1.26-1.43-3.05-2.26-1.78-.83-4.15-.83-2.36 0-4.1.85-1.75.85-2.99 2.28-1.25 1.43-2.06 3.3-.81 1.87-1.26 3.9-.46 2.03-.65 4.09-.18 2.05-.18 3.88t.18 3.9q.19 2.08.65 4.11.45 2.03 1.26 3.9t2.06 3.3q1.24 1.43 2.99 2.28 1.74.85 4.1.85 2.16 0 3.84-.89 1.68-.89 2.95-2.38 1.27-1.5 2.14-3.41.87-1.91 1.41-3.94.54-2.03.79-4.05.25-2.01.25-3.67" transform="translate(-411.385 -402.63)"></path></g><g transform="translate(410.15 56.287)"><linearGradient id="f" x1="-2.509" x2="-1.75" y1="0" y2="0" gradientUnits="objectBoundingBox"><stop offset="0%" stop-color="#9c7945"></stop><stop offset="49.8%" stop-color="#faf3aa"></stop><stop offset="100%" stop-color="#9c7945"></stop></linearGradient><path fill="url(#f)" d="M499.54 402.63q0 5.23-1.58 9.79-1.58 4.57-4.56 7.95-2.99 3.39-7.31 5.34-4.32 1.95-9.79 1.95-4.2 0-7.7-1.64-3.51-1.64-6-5.05v27.85h-14.03v-70.06h5.4l6.22 10.42q.92-2.61 2.51-4.75 1.6-2.14 3.7-3.65 2.09-1.52 4.6-2.35 2.52-.83 5.3-.83 5.47 0 9.79 1.95 4.32 1.95 7.31 5.34 2.98 3.38 4.56 7.94 1.58 4.57 1.58 9.8m-14.24 0q0-1.83-.18-3.88-.19-2.06-.65-4.09-.45-2.03-1.26-3.9t-2.06-3.3q-1.24-1.43-3.01-2.28-1.76-.85-4.09-.85-2.4 0-4.17.83-1.76.83-3.03 2.26-1.26 1.43-2.07 3.28-.81 1.84-1.27 3.88-.45 2.03-.64 4.11-.19 2.07-.19 3.94 0 1.66.25 3.67.25 2.02.79 4.05t1.41 3.94q.87 1.91 2.14 3.41 1.26 1.49 2.95 2.38 1.68.89 3.83.89 2.37 0 4.11-.85 1.75-.85 2.99-2.28 1.25-1.43 2.06-3.3.81-1.87 1.26-3.9.46-2.03.65-4.11.18-2.07.18-3.9" transform="translate(-474.055 -413.21)"></path></g><g transform="translate(465.015 45.227)"><linearGradient id="g" x1="-3.093" x2="-2.542" y1="0" y2="0" gradientUnits="objectBoundingBox"><stop offset="0%" stop-color="#9c7945"></stop><stop offset="49.8%" stop-color="#faf3aa"></stop><stop offset="100%" stop-color="#9c7945"></stop></linearGradient><path fill="url(#g)" d="m549.3 383-7.88 13.07q-.5-1.66-1.29-3.73-.79-2.08-1.95-3.88-1.16-1.81-2.78-3.03-1.62-1.23-3.74-1.23-1.95 0-3.38 1-1.43.99-2.43 2.59-.99 1.6-1.64 3.61-.64 2.02-.99 4.07-.36 2.05-.48 3.94-.13 1.89-.13 3.26v24.03h-14.07v-47.94h5.4l5.69 11.17q1.16-2.7 2.65-4.96 1.5-2.26 3.45-3.9 1.95-1.64 4.42-2.55 2.47-.92 5.58-.92 1.62 0 3.61.27 1.99.27 3.9.92 1.91.64 3.53 1.68 1.62 1.03 2.53 2.53" transform="translate(-528.92 -402.15)"></path></g><g transform="translate(514.035 45.707)"><linearGradient id="h" x1="-3.558" x2="-3.21" y1="0" y2="0" gradientUnits="objectBoundingBox"><stop offset="0%" stop-color="#9c7945"></stop><stop offset="49.8%" stop-color="#faf3aa"></stop><stop offset="100%" stop-color="#9c7945"></stop></linearGradient><path fill="url(#h)" d="M603.42 378.76v47.94h-14.03v-5.73q-2.49 3.41-5.99 5.05-3.51 1.64-7.7 1.64-5.48 0-9.8-1.95-4.31-1.95-7.3-5.34-2.99-3.38-4.57-7.95-1.57-4.56-1.57-9.79 0-5.23 1.57-9.8 1.58-4.56 4.57-7.94 2.99-3.39 7.3-5.34 4.32-1.95 9.8-1.95 2.78 0 5.29.83 2.51.83 4.61 2.35 2.09 1.51 3.69 3.65 1.6 2.14 2.51 4.75l6.23-10.42zm-14.11 23.87q0-1.87-.19-3.94-.18-2.08-.64-4.11-.46-2.04-1.26-3.88-.81-1.85-2.08-3.28-1.27-1.43-3.05-2.26-1.79-.83-4.15-.83-2.37 0-4.11.85-1.74.85-2.99 2.28-1.24 1.43-2.05 3.3-.81 1.87-1.27 3.9-.45 2.03-.64 4.09-.19 2.05-.19 3.88t.19 3.9q.19 2.08.64 4.11.46 2.03 1.27 3.9t2.05 3.3q1.25 1.43 2.99 2.28 1.74.85 4.11.85 2.16 0 3.84-.89 1.68-.89 2.95-2.38 1.26-1.5 2.13-3.41.87-1.91 1.41-3.94.54-2.03.79-4.05.25-2.01.25-3.67" transform="translate(-577.94 -402.63)"></path></g><g transform="translate(564.19 36.992)"><linearGradient id="i" x1="-4.196" x2="-3.955" y1="0" y2="0" gradientUnits="objectBoundingBox"><stop offset="0%" stop-color="#9c7945"></stop><stop offset="49.8%" stop-color="#faf3aa"></stop><stop offset="100%" stop-color="#9c7945"></stop></linearGradient><path fill="url(#i)" d="M632.23 384.33v42.37h-14.07v-42.37h-8.72v-5.57h8.72v-17.63h14.07v17.63h14.52v5.57z" transform="translate(-628.095 -393.915)"></path></g><g transform="translate(613.87 42.097)"><linearGradient id="j" x1="-4.644" x2="-4.535" y1="0" y2="0" gradientUnits="objectBoundingBox"><stop offset="0%" stop-color="#9c7945"></stop><stop offset="49.8%" stop-color="#faf3aa"></stop><stop offset="100%" stop-color="#9c7945"></stop></linearGradient><path fill="url(#j)" d="M702.28 399.23q0 4.85-1.18 10.12t-3.3 10.34q-2.11 5.06-5.06 9.52-2.95 4.46-6.48 7.7l-5.27-2.86q1.12-2.08 2.12-4.65 1-2.57 1.81-5.46.8-2.88 1.45-5.95.64-3.08 1.08-6.08.43-3.01.66-5.86.23-2.84.23-5.29 0-1.62-.12-3.46-.13-1.85-.52-3.7-.4-1.84-1.06-3.55-.67-1.7-1.77-2.98-1.1-1.29-2.65-2.08-1.56-.79-3.68-.79-2.07 0-3.69.94-1.62.93-2.86 2.44-1.25 1.52-2.14 3.47-.89 1.95-1.45 4.01-.56 2.05-.81 4.04-.25 1.99-.25 3.57v24.03h-14.07v-65.57h14.03v24.69q2.69-3.94 6.62-6.08 3.92-2.14 8.69-2.14 4.98 0 8.68 1.62 3.69 1.62 6.14 4.5 2.45 2.89 3.65 6.85 1.2 3.97 1.2 8.66" transform="translate(-677.775 -399.02)"></path></g><g transform="translate(670.42 45.707)"><linearGradient id="k" x1="-5.089" x2="-5.089" y1="0" y2="0" gradientUnits="objectBoundingBox"><stop offset="0%" stop-color="#9c7945"></stop><stop offset="49.8%" stop-color="#faf3aa"></stop><stop offset="100%" stop-color="#9c7945"></stop></linearGradient><path fill="url(#k)" d="M759.81 378.76v47.94h-14.03v-5.73q-2.49 3.41-6 5.05-3.5 1.64-7.7 1.64-5.47 0-9.79-1.95-4.32-1.95-7.3-5.34-2.99-3.38-4.57-7.95-1.58-4.56-1.58-9.79 0-5.23 1.58-9.8 1.58-4.56 4.57-7.94 2.98-3.39 7.3-5.34 4.32-1.95 9.79-1.95 2.79 0 5.3.83t4.6 2.35q2.1 1.51 3.7 3.65 1.6 2.14 2.51 4.75l6.22-10.42zm-14.11 23.87q0-1.87-.19-3.94-.19-2.08-.64-4.11-.46-2.04-1.27-3.88-.81-1.85-2.07-3.28-1.27-1.43-3.05-2.26-1.79-.83-4.15-.83-2.37 0-4.11.85-1.75.85-2.99 2.28-1.25 1.43-2.06 3.3-.81 1.87-1.26 3.9-.46 2.03-.64 4.09-.19 2.05-.19 3.88t.19 3.9q.18 2.08.64 4.11.45 2.03 1.26 3.9t2.06 3.3q1.24 1.43 2.99 2.28 1.74.85 4.11.85 2.15 0 3.84-.89 1.68-.89 2.94-2.38 1.27-1.5 2.14-3.41.87-1.91 1.41-3.94.54-2.03.79-4.05.25-2.01.25-3.67" transform="translate(-734.325 -402.63)"></path></g><g transform="translate(48.874 6.969)scale(1.0364)"><linearGradient id="l" x1="0" x2="1" y1="0" y2="0" gradientUnits="objectBoundingBox"><stop offset="0%" stop-color="#864d25"></stop><stop offset="49.8%" stop-color="#f1c4b3"></stop><stop offset="100%" stop-color="#864d25"></stop></linearGradient><path fill="url(#l)" d="M42.37 21.26a5.64 5.64 0 0 0 5.6-5.15l4.17-.03a5.57 5.57 0 0 0 8.59 4.2 5.6 5.6 0 0 0 1.7-7.75 5.6 5.6 0 0 0-7.75-1.7c-1.18.75-2 1.9-2.37 3.25l-4.54.03a5.62 5.62 0 1 0-5.4 7.15m11.8-6.49a3.6 3.6 0 0 1 4.31-2.75 3.6 3.6 0 0 1 2.76 4.31 3.6 3.6 0 0 1-4.31 2.76 3.6 3.6 0 0 1-2.76-4.31M39.3 13.73a3.6 3.6 0 0 1 4.98-1.15 3.6 3.6 0 0 1 1.16 4.98 3.6 3.6 0 0 1-4.98 1.16 3.6 3.6 0 0 1-1.16-4.99" transform="translate(-50.03 -15.6)"></path></g><g transform="translate(30.149 11.425)scale(1.0364)"><linearGradient id="m" x1="0" x2="1" y1="0" y2="0" gradientUnits="objectBoundingBox"><stop offset="0%" stop-color="#864d25"></stop><stop offset="49.8%" stop-color="#f1c4b3"></stop><stop offset="100%" stop-color="#864d25"></stop></linearGradient><path fill="url(#m)" d="M31.99 25.52a5.6 5.6 0 0 0 5.45-4.31 5.6 5.6 0 0 0-4.16-6.77 5.62 5.62 0 1 0-1.29 11.08m-1.91-8.7a3.6 3.6 0 0 1 4.98 1.2 3.6 3.6 0 0 1-1.19 4.97 3.62 3.62 0 0 1-3.79-6.16" transform="translate(-31.963 -19.9)"></path></g><g transform="translate(21.367 19.074)scale(1.0364)"><linearGradient id="n" x1="0" x2="1" y1="0" y2="0" gradientUnits="objectBoundingBox"><stop offset="0%" stop-color="#864d25"></stop><stop offset="49.8%" stop-color="#f1c4b3"></stop><stop offset="100%" stop-color="#864d25"></stop></linearGradient><path fill="url(#n)" d="M23.48 32.88a5.6 5.6 0 1 0 .02-11.2 5.6 5.6 0 0 0-.02 11.2m-2.77-7.93a3.614 3.614 0 1 1 5.55 4.63 3.614 3.614 0 0 1-5.55-4.63" transform="translate(-23.49 -27.28)"></path></g><g transform="translate(15.462 29.085)scale(1.0364)"><linearGradient id="o" x1="0" x2="1" y1="0" y2="0" gradientUnits="objectBoundingBox"><stop offset="0%" stop-color="#864d25"></stop><stop offset="49.8%" stop-color="#f1c4b3"></stop><stop offset="100%" stop-color="#864d25"></stop></linearGradient><path fill="url(#o)" d="M15.76 42.19q1 .38 2.02.38a5.63 5.63 0 1 0-2.02-.38m-1.35-6.55a3.6 3.6 0 0 1 4.68-2.06 3.6 3.6 0 0 1 2.07 4.68 3.62 3.62 0 1 1-6.75-2.62" transform="translate(-17.793 -36.94)"></path></g><g transform="translate(12.92 40.487)scale(1.0364)"><linearGradient id="p" x1="0" x2="1" y1="0" y2="0" gradientUnits="objectBoundingBox"><stop offset="0%" stop-color="#864d25"></stop><stop offset="49.8%" stop-color="#f1c4b3"></stop><stop offset="100%" stop-color="#864d25"></stop></linearGradient><path fill="url(#p)" d="M15.21 53.56h.26a5.62 5.62 0 1 0-.26 0m-2.18-8.29a3.6 3.6 0 0 1 2.6-.94 3.6 3.6 0 0 1 3.45 3.78 3.6 3.6 0 0 1-3.78 3.45 3.6 3.6 0 0 1-3.44-3.78 3.6 3.6 0 0 1 1.17-2.5" transform="translate(-15.34 -47.94)"></path></g><g transform="translate(14.376 52.055)scale(1.0364)"><linearGradient id="q" x1="0" x2="1" y1="0" y2="0" gradientUnits="objectBoundingBox"><stop offset="0%" stop-color="#864d25"></stop><stop offset="49.8%" stop-color="#f1c4b3"></stop><stop offset="100%" stop-color="#864d25"></stop></linearGradient><path fill="url(#q)" d="M18.32 64.5a5.6 5.6 0 0 0 3.85-6.94 5.6 5.6 0 0 0-6.94-3.86 5.58 5.58 0 0 0-1.18 10.31 5.6 5.6 0 0 0 4.27.5m-5.02-4.4a3.6 3.6 0 0 1 2.48-4.47 3.62 3.62 0 1 1-2.48 4.47" transform="translate(-16.745 -59.103)"></path></g><g transform="translate(19.414 62.592)scale(1.0364)"><linearGradient id="r" x1="0" x2="1" y1="0" y2="0" gradientUnits="objectBoundingBox"><stop offset="0%" stop-color="#864d25"></stop><stop offset="49.8%" stop-color="#f1c4b3"></stop><stop offset="100%" stop-color="#864d25"></stop></linearGradient><path fill="url(#r)" d="M20.55 74.79q.53.1 1.03.1a5.62 5.62 0 1 0-1.03-.1m-2.53-6.18a3.62 3.62 0 1 1 7.174.975 3.62 3.62 0 0 1-7.174-.975" transform="translate(-21.605 -69.27)"></path></g><g transform="translate(27.449 70.977)scale(1.0364)"><linearGradient id="s" x1="0" x2="1" y1="0" y2="0" gradientUnits="objectBoundingBox"><stop offset="0%" stop-color="#864d25"></stop><stop offset="49.8%" stop-color="#f1c4b3"></stop><stop offset="100%" stop-color="#864d25"></stop></linearGradient><path fill="url(#s)" d="M32.72 72.87a5.6 5.6 0 0 0-8.92 5.3 5.6 5.6 0 0 0 6.35 4.76 5.6 5.6 0 0 0 4.77-6.36c-.22-1.48-1-2.8-2.2-3.7m-.47 6.67a3.6 3.6 0 0 1-5.06.72 3.6 3.6 0 0 1-.73-5.06 3.6 3.6 0 0 1 5.07-.73 3.6 3.6 0 0 1 .72 5.07" transform="translate(-29.358 -77.36)"></path></g><g transform="translate(37.773 76.382)scale(1.0364)"><linearGradient id="t" x1="0" x2="1" y1="0" y2="0" gradientUnits="objectBoundingBox"><stop offset="0%" stop-color="#864d25"></stop><stop offset="49.8%" stop-color="#f1c4b3"></stop><stop offset="100%" stop-color="#864d25"></stop></linearGradient><path fill="url(#t)" d="M41.08 77.23a5.627 5.627 0 1 0-3.52 10.69 5.627 5.627 0 0 0 3.52-10.69m1.67 6.47a3.624 3.624 0 1 1-6.88-2.28 3.624 3.624 0 0 1 6.88 2.28" transform="translate(-39.32 -82.575)"></path></g><g transform="translate(49.272 78.19)scale(1.0364)"><linearGradient id="u" x1="0" x2="1" y1="0" y2="0" gradientUnits="objectBoundingBox"><stop offset="0%" stop-color="#864d25"></stop><stop offset="49.8%" stop-color="#f1c4b3"></stop><stop offset="100%" stop-color="#864d25"></stop></linearGradient><path fill="url(#u)" d="M50.38 78.7a5.6 5.6 0 0 0-5.58 5.65 5.6 5.6 0 0 0 5.61 5.59h.03a5.6 5.6 0 0 0 5.59-5.65 5.6 5.6 0 0 0-5.65-5.59m2.6 8.16a3.6 3.6 0 0 1-2.55 1.08 3.5 3.5 0 0 1-2.56-1.05 3.6 3.6 0 0 1-1.07-2.55 3.6 3.6 0 0 1 3.6-3.63h.01a3.6 3.6 0 0 1 3.62 3.6c0 .96-.37 1.87-1.05 2.55" transform="translate(-50.415 -84.32)"></path></g><g transform="translate(60.753 76.252)scale(1.0364)"><linearGradient id="v" x1="0" x2="1" y1="0" y2="0" gradientUnits="objectBoundingBox"><stop offset="0%" stop-color="#864d25"></stop><stop offset="49.8%" stop-color="#f1c4b3"></stop><stop offset="100%" stop-color="#864d25"></stop></linearGradient><path fill="url(#v)" d="M63.96 77.4a5.62 5.62 0 0 0-4.943 10.093A5.62 5.62 0 0 0 63.96 77.4m-1.3 8.47c-.91.3-1.9.25-2.76-.18a3.62 3.62 0 1 1 2.76.17" transform="translate(-61.493 -82.45)"></path></g><g transform="translate(71.25 70.743)scale(1.0364)"><linearGradient id="w" x1="0" x2="1" y1="0" y2="0" gradientUnits="objectBoundingBox"><stop offset="0%" stop-color="#864d25"></stop><stop offset="49.8%" stop-color="#f1c4b3"></stop><stop offset="100%" stop-color="#864d25"></stop></linearGradient><path fill="url(#w)" d="M71.4 82.75a5.62 5.62 0 1 0 .443-11.231A5.62 5.62 0 0 0 71.4 82.75m-3.59-6.09a3.6 3.6 0 0 1 3.58-3.14 3.61 3.61 0 1 1-2.86 5.82 3.6 3.6 0 0 1-.72-2.68" transform="translate(-71.621 -77.134)"></path></g><g transform="translate(78.982 62.233)scale(1.0364)"><linearGradient id="x" x1="0" x2="1" y1="0" y2="0" gradientUnits="objectBoundingBox"><stop offset="0%" stop-color="#864d25"></stop><stop offset="49.8%" stop-color="#f1c4b3"></stop><stop offset="100%" stop-color="#864d25"></stop></linearGradient><path fill="url(#x)" d="M84.6 67.87a5.6 5.6 0 0 0-2.37-3.58 5.58 5.58 0 0 0-8.65 5.74 5.6 5.6 0 0 0 5.5 4.53 5.6 5.6 0 0 0 5.52-6.69m-2.51 3.1a3.62 3.62 0 1 1-6.173-3.783 3.62 3.62 0 0 1 6.173 3.783" transform="translate(-79.082 -68.923)"></path></g><g transform="translate(83.836 51.679)scale(1.0364)"><linearGradient id="y" x1="0" x2="1" y1="0" y2="0" gradientUnits="objectBoundingBox"><stop offset="0%" stop-color="#864d25"></stop><stop offset="49.8%" stop-color="#f1c4b3"></stop><stop offset="100%" stop-color="#864d25"></stop></linearGradient><path fill="url(#y)" d="M89.19 60.22a5.623 5.623 0 1 0-10.85-2.96 5.623 5.623 0 0 0 10.85 2.96m-3.63 1.66a3.62 3.62 0 1 1-3.57-6.3 3.62 3.62 0 0 1 3.57 6.3" transform="translate(-83.765 -58.74)"></path></g><g transform="translate(85.076 40.102)scale(1.0364)"><linearGradient id="z" x1="0" x2="1" y1="0" y2="0" gradientUnits="objectBoundingBox"><stop offset="0%" stop-color="#864d25"></stop><stop offset="49.8%" stop-color="#f1c4b3"></stop><stop offset="100%" stop-color="#864d25"></stop></linearGradient><path fill="url(#z)" d="M79.35 47.88a5.6 5.6 0 0 0 5.93 5.3 5.62 5.62 0 1 0-5.93-5.3m5.61-3.93a3.6 3.6 0 0 1 3.6 3.4 3.6 3.6 0 0 1-3.4 3.82 3.611 3.611 0 0 1-.2-7.22" transform="translate(-84.961 -47.57)"></path></g><g transform="translate(82.564 28.772)scale(1.0364)"><linearGradient id="A" x1="0" x2="1" y1="0" y2="0" gradientUnits="objectBoundingBox"><stop offset="0%" stop-color="#864d25"></stop><stop offset="49.8%" stop-color="#f1c4b3"></stop><stop offset="100%" stop-color="#864d25"></stop></linearGradient><path fill="url(#A)" d="M77.3 38.69a5.63 5.63 0 0 0 10.44-4.18 5.63 5.63 0 0 0-10.43 4.18m5.22-5.71a3.62 3.62 0 1 1 0 7.24 3.62 3.62 0 0 1 0-7.24" transform="translate(-82.538 -36.637)"></path></g><g transform="translate(76.524 18.768)scale(1.0364)"><linearGradient id="B" x1="0" x2="1" y1="0" y2="0" gradientUnits="objectBoundingBox"><stop offset="0%" stop-color="#864d25"></stop><stop offset="49.8%" stop-color="#f1c4b3"></stop><stop offset="100%" stop-color="#864d25"></stop></linearGradient><path fill="url(#B)" d="M72.44 30.62a5.608 5.608 0 1 0 8.54-7.27 5.608 5.608 0 0 0-8.54 7.27m1.93-6.4a3.6 3.6 0 0 1 5.1.41 3.62 3.62 0 1 1-5.1-.4" transform="translate(-76.71 -26.985)"></path></g><g transform="translate(67.642 11.218)scale(1.0364)"><linearGradient id="C" x1="0" x2="1" y1="0" y2="0" gradientUnits="objectBoundingBox"><stop offset="0%" stop-color="#864d25"></stop><stop offset="49.8%" stop-color="#f1c4b3"></stop><stop offset="100%" stop-color="#864d25"></stop></linearGradient><path fill="url(#C)" d="M65.25 24.52a5.62 5.62 0 1 0 5.78-9.64 5.62 5.62 0 0 0-5.78 9.64m-.2-6.67A3.6 3.6 0 0 1 70 16.6a3.6 3.6 0 0 1 1.23 4.96 3.62 3.62 0 0 1-6.2-3.72" transform="translate(-68.14 -19.7)"></path></g></svg></svg>